<?xml version="1.0" standalone="no"?>
<!DOCTYPE svg PUBLIC "-//W3C//DTD SVG 20010904//EN"
 "http://www.w3.org/TR/2001/REC-SVG-20010904/DTD/svg10.dtd">
<svg version="1.0" xmlns="http://www.w3.org/2000/svg"
 width="408.000000pt" height="144.000000pt" viewBox="0 0 408.000000 144.000000"
 preserveAspectRatio="xMidYMid meet">
<metadata>
Created by potrace 1.16, written by Peter Selinger 2001-2019
</metadata>
<g transform="translate(0.000000,144.000000) scale(0.100000,-0.100000)"
fill="#000000" stroke="none">
<path d="M219 1420 c-67 -11 -115 -37 -154 -82 -65 -77 -65 -78 -65 -625 0
-466 1 -496 19 -531 36 -70 93 -117 186 -152 81 -30 226 -31 385 -1 63 12 142
26 175 32 240 43 377 156 429 354 l15 60 -27 22 c-17 14 -48 24 -85 29 l-59 7
6 31 c14 73 19 303 7 339 -7 20 -16 37 -21 37 -29 0 -79 -110 -100 -218 -14
-69 -33 -88 -77 -77 -18 4 -31 21 -50 63 -33 72 -108 188 -128 196 -57 22 -29
-203 49 -386 6 -13 1 -18 -26 -23 -18 -3 -55 -5 -83 -3 -48 3 -49 4 -61 44
-30 104 -46 438 -23 488 10 21 20 26 77 32 83 9 113 -6 191 -93 31 -35 58 -63
62 -63 3 0 14 19 26 43 29 59 91 127 130 143 18 8 55 14 83 14 48 0 52 -2 66
-32 l15 -33 -6 44 c-12 91 -53 133 -178 185 -100 40 -131 43 -257 21 -47 -8
-94 -15 -105 -14 -11 1 34 11 100 23 l120 22 -53 12 c-29 7 -87 12 -129 12
l-75 0 4 -40 c2 -22 0 -40 -4 -40 -5 0 -8 17 -8 38 l0 38 -77 31 c-63 25 -86
30 -118 25 -39 -7 -40 -8 -46 -57 l-6 -50 -1 42 c-3 57 6 73 37 73 19 1 22 3
11 9 -24 13 -120 19 -171 11z"/>
<path d="M1478 1068 c-19 -34 -19 -538 1 -561 10 -13 31 -17 84 -17 92 0 145
25 187 88 41 62 53 113 48 199 -4 57 -11 81 -32 113 -33 50 -84 74 -138 66
-35 -6 -38 -4 -38 16 0 13 4 39 10 57 13 47 -1 61 -61 61 -40 0 -51 -4 -61
-22z m85 -74 c-7 -77 0 -86 58 -71 52 13 92 -4 121 -52 32 -51 33 -187 1 -246
-42 -78 -88 -105 -183 -105 l-59 0 -7 56 c-8 68 0 456 10 472 4 7 20 12 36 12
l29 0 -6 -66z"/>
<path d="M1579 881 c-21 -17 -24 -30 -27 -98 -7 -139 25 -199 91 -174 82 31
93 221 16 275 -31 21 -51 20 -80 -3z m56 -17 c62 -24 59 -210 -4 -227 -33 -8
-45 19 -49 112 -4 72 -1 90 13 104 19 19 18 19 40 11z"/>
<path d="M2018 1068 c-10 -17 -13 -87 -13 -284 0 -302 -1 -297 79 -292 l51 3
-1 45 c-1 25 -5 108 -9 185 -5 97 -4 168 5 230 20 141 23 130 -42 133 -50 3
-58 0 -70 -20z m89 -45 c-13 -44 -16 -350 -4 -440 l8 -63 -34 0 c-32 0 -35 3
-41 37 -8 50 -8 349 1 436 l6 67 38 0 37 0 -11 -37z"/>
<path d="M2661 1018 c-57 -29 -82 -64 -88 -120 -9 -82 41 -141 151 -178 72
-23 99 -47 94 -81 -4 -32 -44 -51 -96 -46 -52 6 -88 36 -104 89 -13 44 -22 47
-43 15 -61 -94 11 -208 142 -224 101 -11 188 39 213 124 29 96 -28 178 -152
221 -99 35 -125 78 -67 111 31 17 67 10 107 -24 17 -14 37 -23 45 -19 21 8 51
68 44 87 -10 26 -82 57 -144 63 -48 5 -66 2 -102 -18z"/>
<path d="M2998 1013 c-8 -19 -12 -112 -12 -278 l-1 -250 52 -3 52 -3 -6 133
c-5 108 -3 140 10 171 13 29 21 37 42 37 47 0 58 -89 30 -237 -21 -108 -22
-103 35 -103 65 0 70 11 77 168 6 138 -3 191 -38 237 -19 24 -27 26 -68 22
-25 -2 -55 -8 -67 -11 -20 -7 -21 -5 -14 36 4 24 11 58 15 76 l8 32 -52 0
c-47 0 -53 -3 -63 -27z"/>
<path d="M1193 965 c1 -12 -14 -36 -35 -58 -73 -72 -89 -224 -35 -321 22 -39
23 -45 8 -49 -13 -4 -13 -5 2 -6 11 0 30 -10 43 -20 81 -64 210 -11 254 104 6
17 12 66 12 109 0 67 -5 87 -29 134 -36 71 -94 106 -165 99 -37 -3 -48 -1 -52
12 -3 10 -4 8 -3 -4z m138 -58 c53 -35 79 -97 79 -186 0 -153 -88 -240 -199
-195 -54 21 -87 62 -100 124 -15 68 -14 97 4 158 22 74 84 142 86 95 0 -14 2
-15 6 -3 14 37 74 41 124 7z"/>
<path d="M1224 872 c-46 -30 -66 -172 -31 -225 44 -67 102 -70 145 -7 24 36
31 126 13 173 -21 54 -88 85 -127 59z m81 -42 c42 -47 25 -198 -23 -201 -59
-4 -80 11 -92 67 -11 47 8 152 21 119 7 -19 8 -19 8 2 1 37 57 45 86 13z"/>
<path d="M2280 949 c-75 -30 -122 -112 -128 -226 -4 -74 -2 -88 22 -137 35
-72 80 -101 156 -100 66 0 113 23 140 67 24 38 26 109 5 127 -12 10 -18 6 -36
-24 -27 -46 -82 -65 -125 -45 -52 25 -42 43 40 73 94 35 136 77 136 137 0 22
-7 54 -16 70 -28 54 -128 84 -194 58z m125 -34 c57 -27 73 -103 33 -150 -13
-14 -55 -37 -97 -53 -80 -29 -97 -46 -88 -84 14 -54 120 -72 176 -30 39 29 42
7 5 -37 -48 -58 -152 -62 -202 -8 -68 72 -70 229 -5 316 44 57 114 75 178 46z"/>
<path d="M2274 846 c-34 -34 -47 -87 -24 -101 17 -10 107 15 135 37 31 24 32
51 3 78 -33 31 -74 26 -114 -14z"/>
<path d="M1831 931 c-16 -29 -15 -413 1 -429 14 -14 96 -16 117 -3 11 7 12 20
6 58 -4 26 -10 125 -14 218 l-6 170 -47 3 c-38 2 -49 -1 -57 -17z m82 -183 c3
-95 9 -185 13 -200 6 -27 5 -28 -35 -28 l-41 0 0 200 0 200 29 0 28 0 6 -172z"/>
<path d="M3381 874 c-74 -66 -93 -211 -42 -312 49 -95 158 -119 236 -51 49 44
68 101 64 196 -7 136 -62 203 -165 203 -48 0 -59 -4 -93 -36z m145 -75 c44
-48 22 -192 -30 -205 -74 -18 -122 110 -74 199 20 38 72 41 104 6z"/>
<path d="M3689 893 c-17 -20 -26 -318 -12 -373 9 -34 11 -35 61 -38 l53 -3 -7
66 -7 67 25 -25 c32 -32 58 -27 107 22 50 50 71 99 71 164 0 99 -53 137 -193
137 -66 0 -88 -4 -98 -17z m193 -96 c29 -45 -11 -122 -68 -133 -26 -5 -32 -2
-37 16 -5 20 -2 64 9 117 2 12 12 23 22 25 21 5 64 -9 74 -25z"/>
</g>
</svg>
