<?xml version="1.0" standalone="no"?>
<!DOCTYPE svg PUBLIC "-//W3C//DTD SVG 20010904//EN"
 "http://www.w3.org/TR/2001/REC-SVG-20010904/DTD/svg10.dtd">
<svg version="1.0" xmlns="http://www.w3.org/2000/svg"
 width="980.000000pt" height="980.000000pt" viewBox="0 0 980.000000 980.000000"
 preserveAspectRatio="xMidYMid meet">

<g transform="translate(0.000000,980.000000) scale(0.100000,-0.100000)"
fill="#000000" stroke="none">
<path d="M4550 9790 c-375 -24 -867 -129 -1261 -271 -1173 -420 -2133 -1255
-2736 -2379 -243 -452 -444 -1073 -517 -1598 -55 -390 -44 -1048 23 -1432 155
-885 549 -1714 1139 -2397 449 -519 1011 -952 1607 -1239 446 -214 1028 -389
1475 -444 258 -31 952 -31 1210 0 213 26 556 102 808 180 857 263 1664 790
2267 1481 729 834 1152 1844 1225 2917 45 673 -68 1374 -327 2037 -77 197
-253 551 -368 740 -572 944 -1447 1683 -2465 2080 -349 136 -739 240 -1090
289 -226 32 -753 51 -990 36z m510 -650 c920 -43 1711 -319 2405 -840 1221
-915 1838 -2399 1645 -3956 -178 -1434 -1048 -2652 -2335 -3270 -1214 -582
-2701 -560 -3895 59 -605 314 -1111 767 -1498 1339 -477 708 -732 1551 -732
2422 0 889 255 1729 741 2447 114 168 178 247 367 453 292 318 609 576 952
773 599 345 1273 541 1965 573 88 4 165 7 170 8 6 1 102 -3 215 -8z"/>
<path d="M3503 7181 c-133 -3 -245 -10 -249 -14 -13 -13 -17 -184 -9 -421 l7
-223 357 -7 c426 -9 624 -20 723 -41 110 -25 279 -111 360 -184 117 -107 221
-256 254 -366 l13 -45 -849 0 -850 0 0 -325 0 -325 850 -2 849 -3 -23 -67
c-51 -146 -221 -345 -367 -431 -202 -119 -332 -138 -1043 -153 l-289 -6 7
-316 c3 -174 8 -317 9 -319 2 -1 33 -7 69 -12 128 -18 53 49 1318 -1186 338
-330 656 -639 705 -687 l91 -87 229 230 230 230 -360 351 c-595 581 -1195
1182 -1187 1189 4 4 66 26 137 49 166 54 286 111 417 199 351 237 595 564 692
930 l23 86 446 3 447 2 0 325 0 325 -448 0 -449 0 -13 58 c-30 137 -122 337
-229 500 -34 51 -61 95 -61 97 0 3 270 5 600 5 l600 0 0 325 0 325 -1382 -2
c-761 -1 -1492 -4 -1625 -7z"/>
</g>
</svg>
